<svg width="25" height="25" viewBox="0 0 25 25" fill="none" xmlns="http://www.w3.org/2000/svg">
<path d="M20.825 13.8549H4.82495C4.27195 13.8549 3.82495 13.4069 3.82495 12.8549C3.82495 12.3029 4.27195 11.8549 4.82495 11.8549H20.825C21.378 11.8549 21.825 12.3029 21.825 12.8549C21.825 13.4069 21.378 13.8549 20.825 13.8549Z" fill="white"/>
<path d="M16.825 17.8549C16.569 17.8549 16.313 17.7569 16.118 17.5619C15.727 17.1709 15.727 16.5389 16.118 16.1479L19.4109 12.8549L16.118 9.56193C15.727 9.17093 15.727 8.53886 16.118 8.14786C16.509 7.75686 17.141 7.75686 17.532 8.14786L21.532 12.1479C21.923 12.5389 21.923 13.1709 21.532 13.5619L17.532 17.5619C17.337 17.7569 17.081 17.8549 16.825 17.8549Z" fill="white"/>
</svg>
