<svg width="54" height="55" viewBox="0 0 54 55" fill="none" xmlns="http://www.w3.org/2000/svg">
<path d="M17.0526 0.5H36.9474C46.3653 0.5 54 8.13472 54 17.5526V37.4474C54 46.8653 46.3653 54.5 36.9474 54.5H17.0526C7.63472 54.5 0 46.8653 0 37.4474V17.5526C0 8.13472 7.63472 0.5 17.0526 0.5Z" fill="#AF8EFF"/>
<path d="M30.25 30V36.2C30.25 36.366 30.116 36.5 29.95 36.5H24.05C23.884 36.5 23.75 36.366 23.75 36.2V30C23.75 29.411 23.911 29.25 24.5 29.25H29.5C30.089 29.25 30.25 29.411 30.25 30ZM36 29.5V33.5C36 34.17 35.67 34.5 35 34.5H33.8899C33.6599 35.49 33.0801 36.11 32.1201 36.37C31.9301 36.42 31.75 36.2599 31.75 36.0699V30C31.75 28.59 30.91 27.75 29.5 27.75H24.5C23.09 27.75 22.25 28.59 22.25 30V36.0699C22.25 36.2599 22.0699 36.42 21.8799 36.37C20.9199 36.11 20.3401 35.49 20.1101 34.5H19C18.33 34.5 18 34.17 18 33.5V29.5C18 28.83 18.33 28.5 19 28.5H20V26.5C20 24.14 21.25 22.41 23.25 21.78V21.5C23.25 19.43 24.93 17.75 27 17.75C29.07 17.75 30.75 19.43 30.75 21.5V21.78C32.75 22.41 34 24.14 34 26.5V28.5H35C35.67 28.5 36 28.83 36 29.5ZM28.75 25.5C28.75 25.09 28.41 24.75 28 24.75H26C25.59 24.75 25.25 25.09 25.25 25.5C25.25 25.91 25.59 26.25 26 26.25H28C28.41 26.25 28.75 25.91 28.75 25.5ZM29.25 21.5C29.25 20.26 28.24 19.25 27 19.25C25.76 19.25 24.75 20.26 24.75 21.5V21.52C24.84 21.52 24.91 21.5 25 21.5H29C29.09 21.5 29.16 21.52 29.25 21.52V21.5Z" fill="white"/>
</svg>
