<svg width="55" height="55" viewBox="0 0 55 55" fill="none" xmlns="http://www.w3.org/2000/svg">
<path d="M17.4623 0.165039H37.357C46.7749 0.165039 54.4097 7.79976 54.4097 17.2177V37.1124C54.4097 46.5303 46.7749 54.165 37.357 54.165H17.4623C8.04439 54.165 0.409668 46.5303 0.409668 37.1124V17.2177C0.409668 7.79976 8.04439 0.165039 17.4623 0.165039Z" fill="#FF9B90"/>
<path d="M29.5737 34.916C29.6627 35.071 29.6617 35.263 29.5717 35.417C29.1157 36.198 28.3077 36.665 27.4097 36.665C26.5117 36.665 25.7037 36.198 25.2477 35.417C25.1577 35.263 25.1567 35.071 25.2457 34.916C25.3347 34.761 25.4997 34.665 25.6797 34.665H29.1397C29.3187 34.665 29.4837 34.761 29.5737 34.916ZM35.8007 32.853C35.7817 32.83 33.9047 30.447 33.9047 27.665V24.16C33.9047 20.579 30.9907 17.665 27.4097 17.665C23.8287 17.665 20.9147 20.579 20.9147 24.16V27.665C20.9147 30.446 19.0387 32.829 19.0187 32.853C18.8987 33.003 18.8757 33.209 18.9587 33.382C19.0417 33.555 19.2167 33.665 19.4087 33.665H35.4087C35.6007 33.665 35.7757 33.555 35.8587 33.382C35.9437 33.208 35.9197 33.003 35.8007 32.853Z" fill="white"/>
</svg>
