<svg width="54" height="55" viewBox="0 0 54 55" fill="none" xmlns="http://www.w3.org/2000/svg">
<path d="M17.0526 0.5H36.9474C46.3653 0.5 54 8.13472 54 17.5526V37.4474C54 46.8653 46.3653 54.5 36.9474 54.5H17.0526C7.63472 54.5 0 46.8653 0 37.4474V17.5526C0 8.13472 7.63472 0.5 17.0526 0.5Z" fill="#7FE3F0"/>
<path d="M36.75 18.5C36.75 18.086 36.414 17.75 36 17.75C30.855 17.75 26.832 19.354 24.272 22.292L22.721 22.551C20.831 22.851 19.221 24.151 18.521 25.921L17.561 28.311C17.491 28.481 17.521 28.681 17.641 28.821C17.731 28.941 17.871 29.001 18.021 29.001C18.051 29.001 18.091 29.001 18.121 28.991L21.436 28.332C21.418 28.428 21.392 28.518 21.375 28.616C21.252 29.32 21.49 30.051 22.01 30.571L23.932 32.494C24.362 32.923 24.936 33.16 25.52 33.16C25.642 33.16 25.765 33.15 25.887 33.129C25.986 33.112 26.077 33.085 26.175 33.067L25.512 36.403C25.472 36.583 25.542 36.773 25.682 36.883C25.772 36.963 25.892 37.003 26.002 37.003C26.062 37.003 26.132 36.993 26.192 36.963L28.572 36.013C30.352 35.303 31.652 33.693 31.952 31.803L32.21 30.232C35.146 27.668 36.75 23.646 36.75 18.5ZM25.629 31.648C25.408 31.685 25.163 31.603 24.991 31.431L23.069 29.508C22.896 29.336 22.813 29.091 22.851 28.871C23.661 24.202 26.405 21.779 29.304 20.531C31.814 20.686 33.814 22.685 33.969 25.196C32.721 28.095 30.299 30.838 25.629 31.648ZM30.75 26C30.75 27.243 29.743 28.25 28.5 28.25C27.257 28.25 26.25 27.243 26.25 26C26.25 24.757 27.257 23.75 28.5 23.75C29.743 23.75 30.75 24.757 30.75 26Z" fill="white"/>
</svg>
