<svg width="25" height="24" viewBox="0 0 25 24" fill="none" xmlns="http://www.w3.org/2000/svg">
<path d="M21.2 9.75H3.80005C3.63405 9.75 3.5 9.88405 3.5 10.05V18C3.5 20 4.5 21 6.5 21H18.5C20.5 21 21.5 20 21.5 18V10.05C21.5 9.88405 21.366 9.75 21.2 9.75ZM8.52002 18C7.96802 18 7.51489 17.552 7.51489 17C7.51489 16.448 7.95801 16 8.51001 16H8.52002C9.07302 16 9.52002 16.448 9.52002 17C9.52002 17.552 9.07202 18 8.52002 18ZM8.52002 14C7.96802 14 7.51489 13.552 7.51489 13C7.51489 12.448 7.95801 12 8.51001 12H8.52002C9.07302 12 9.52002 12.448 9.52002 13C9.52002 13.552 9.07202 14 8.52002 14ZM12.52 18C11.968 18 11.5149 17.552 11.5149 17C11.5149 16.448 11.958 16 12.51 16H12.52C13.073 16 13.52 16.448 13.52 17C13.52 17.552 13.072 18 12.52 18ZM12.52 14C11.968 14 11.5149 13.552 11.5149 13C11.5149 12.448 11.958 12 12.51 12H12.52C13.073 12 13.52 12.448 13.52 13C13.52 13.552 13.072 14 12.52 14ZM16.52 18C15.968 18 15.5149 17.552 15.5149 17C15.5149 16.448 15.958 16 16.51 16H16.52C17.073 16 17.52 16.448 17.52 17C17.52 17.552 17.072 18 16.52 18ZM16.52 14C15.968 14 15.5149 13.552 15.5149 13C15.5149 12.448 15.958 12 16.51 12H16.52C17.073 12 17.52 12.448 17.52 13C17.52 13.552 17.072 14 16.52 14ZM21.5 7.5V7.94995C21.5 8.11595 21.366 8.25 21.2 8.25H3.80005C3.63405 8.25 3.5 8.11595 3.5 7.94995V7.5C3.5 5.5 4.5 4.5 6.5 4.5H7.75V3C7.75 2.59 8.09 2.25 8.5 2.25C8.91 2.25 9.25 2.59 9.25 3V4.5H15.75V3C15.75 2.59 16.09 2.25 16.5 2.25C16.91 2.25 17.25 2.59 17.25 3V4.5H18.5C20.5 4.5 21.5 5.5 21.5 7.5Z" fill="#4C5980"/>
</svg>
