<svg width="27" height="27" viewBox="0 0 27 27" fill="none" xmlns="http://www.w3.org/2000/svg">
<path fill-rule="evenodd" clip-rule="evenodd" d="M13.75 0.5C21.0678 0.5 27 6.43223 27 13.75C27 21.0678 21.0678 27 13.75 27C6.43223 27 0.5 21.0678 0.5 13.75C0.5 6.43223 6.43223 0.5 13.75 0.5ZM13.75 2.04362C20.2151 2.04436 25.4555 7.2858 25.455 13.7509C25.4546 20.216 20.2133 25.4566 13.7482 25.4564C7.28315 25.4561 2.0423 20.2151 2.0423 13.75C2.04239 10.6451 3.27594 7.66736 5.47158 5.47197C7.66722 3.27658 10.6451 2.04336 13.75 2.04362ZM9.55836 8.00281C9.14882 7.99793 8.75443 8.15749 8.46348 8.44576C8.17253 8.73403 8.00934 9.12693 8.01043 9.5365C8.01043 10.3914 8.70346 11.0844 9.55836 11.0844C10.4133 11.0844 11.1063 10.3914 11.1063 9.5365C11.1074 9.12693 10.9442 8.73403 10.6532 8.44576C10.3623 8.15749 9.96791 7.99793 9.55836 8.00281ZM22.5801 16.0323C21.8746 19.845 18.1947 23.0283 13.7483 23.0283C9.33742 23.0283 5.67909 19.8914 4.93212 16.1218C4.78074 15.181 5.55123 14.9591 6.277 15.1346C8.70492 15.8366 11.2228 16.1782 13.75 16.1483C16.2715 16.1775 18.7836 15.8371 21.2064 15.1379C21.912 14.9591 22.6676 15.1611 22.5801 16.0323ZM20.1849 16.5623C20.116 16.5888 20.0461 16.6087 19.9755 16.6319C19.9682 16.6352 20.2014 16.559 20.1945 16.5623C18.0994 17.1391 15.9338 17.4189 13.7609 17.3937C11.1679 17.3937 8.84883 17.1056 7.25286 16.5325C6.09581 16.188 6.31774 17.5494 7.13096 17.9668C9.21139 18.9139 11.4749 19.3912 13.7606 19.3647C16.4795 19.3647 18.9023 18.732 20.5025 17.9138C21.2598 17.4269 21.4095 16.1217 20.1849 16.5623ZM17.9503 8.00281C17.5407 7.99793 17.1462 8.15748 16.8553 8.44574C16.5643 8.734 16.401 9.1269 16.402 9.5365C16.3938 10.095 16.6871 10.6146 17.1694 10.8962C17.6518 11.1778 18.2484 11.1778 18.7307 10.8962C19.2131 10.6146 19.5064 10.095 19.4982 9.5365C19.4992 9.12696 19.336 8.73411 19.045 8.44586C18.7541 8.15761 18.3598 7.99802 17.9503 8.00281Z" fill="#1B1B4E"/>
</svg>
