<svg width="25" height="24" viewBox="0 0 25 24" fill="none" xmlns="http://www.w3.org/2000/svg">
<path d="M21.25 4V9C21.25 9.552 20.803 10 20.25 10C19.697 10 19.25 9.552 19.25 9V6.41406L11.957 13.707C11.762 13.902 11.506 14 11.25 14C10.994 14 10.738 13.902 10.543 13.707C10.152 13.316 10.152 12.684 10.543 12.293L17.8359 5H15.25C14.697 5 14.25 4.552 14.25 4C14.25 3.448 14.697 3 15.25 3H20.25C20.38 3 20.5101 3.0269 20.6321 3.0769C20.8771 3.1779 21.0721 3.37292 21.1731 3.61792C21.2241 3.73992 21.25 3.87 21.25 4ZM20.25 12C19.697 12 19.25 12.448 19.25 13V17C19.25 18.439 18.689 19 17.25 19H7.25C5.811 19 5.25 18.439 5.25 17V7C5.25 5.561 5.811 5 7.25 5H11.25C11.803 5 12.25 4.552 12.25 4C12.25 3.448 11.803 3 11.25 3H7.25C4.708 3 3.25 4.458 3.25 7V17C3.25 19.542 4.708 21 7.25 21H17.25C19.792 21 21.25 19.542 21.25 17V13C21.25 12.448 20.803 12 20.25 12Z" fill="#4C5980"/>
</svg>
