<svg width="54" height="55" viewBox="0 0 54 55" fill="none" xmlns="http://www.w3.org/2000/svg">
<path d="M17.0526 0.5H36.9474C46.3653 0.5 54 8.13472 54 17.5526V37.4474C54 46.8653 46.3653 54.5 36.9474 54.5H17.0526C7.63472 54.5 0 46.8653 0 37.4474V17.5526C0 8.13472 7.63472 0.5 17.0526 0.5Z" fill="#59B9FD"/>
<path d="M32 18.5H22C20 18.5 19 19.5 19 21.5V33.5C19 35.5 20 36.5 22 36.5H32C34 36.5 35 35.5 35 33.5V21.5C35 19.5 34 18.5 32 18.5ZM25.03 31.364L23.697 32.697C23.551 32.843 23.359 32.917 23.167 32.917C22.976 32.917 22.783 32.844 22.637 32.698L21.97 32.031C21.677 31.738 21.677 31.263 21.97 30.97C22.262 30.678 22.737 30.677 23.031 30.97L23.168 31.107L23.9709 30.304C24.2639 30.011 24.739 30.011 25.032 30.304C25.325 30.597 25.323 31.071 25.03 31.364ZM25.03 27.364L23.697 28.697C23.551 28.843 23.359 28.917 23.167 28.917C22.976 28.917 22.783 28.844 22.637 28.698L21.97 28.031C21.677 27.738 21.677 27.263 21.97 26.97C22.262 26.678 22.737 26.677 23.031 26.97L23.168 27.107L23.9709 26.304C24.2639 26.011 24.739 26.011 25.032 26.304C25.325 26.597 25.323 27.071 25.03 27.364ZM25.03 23.364L23.697 24.697C23.551 24.843 23.359 24.917 23.167 24.917C22.976 24.917 22.783 24.844 22.637 24.698L21.97 24.031C21.677 23.738 21.677 23.263 21.97 22.97C22.262 22.678 22.737 22.677 23.031 22.97L23.168 23.107L23.9709 22.304C24.2639 22.011 24.739 22.011 25.032 22.304C25.325 22.597 25.323 23.071 25.03 23.364ZM31.5 32.25H27.5C27.086 32.25 26.75 31.914 26.75 31.5C26.75 31.086 27.086 30.75 27.5 30.75H31.5C31.914 30.75 32.25 31.086 32.25 31.5C32.25 31.914 31.914 32.25 31.5 32.25ZM31.5 28.25H27.5C27.086 28.25 26.75 27.914 26.75 27.5C26.75 27.086 27.086 26.75 27.5 26.75H31.5C31.914 26.75 32.25 27.086 32.25 27.5C32.25 27.914 31.914 28.25 31.5 28.25ZM31.5 24.25H27.5C27.086 24.25 26.75 23.914 26.75 23.5C26.75 23.086 27.086 22.75 27.5 22.75H31.5C31.914 22.75 32.25 23.086 32.25 23.5C32.25 23.914 31.914 24.25 31.5 24.25Z" fill="white"/>
</svg>
