<svg width="24" height="24" viewBox="0 0 24 24" fill="none" xmlns="http://www.w3.org/2000/svg">
<path d="M12 10.5862L19.293 3.29325C19.684 2.90225 20.316 2.90225 20.707 3.29325C21.098 3.68425 21.098 4.31631 20.707 4.70731L13.4141 12.0003H16C16.553 12.0003 17 12.4483 17 13.0003C17 13.5523 16.553 14.0003 16 14.0003H11C10.87 14.0003 10.7399 13.9734 10.6179 13.9234C10.3729 13.8224 10.1789 13.6274 10.0769 13.3824C10.0259 13.2604 10 13.1303 10 13.0003V8.00028C10 7.44828 10.447 7.00028 11 7.00028C11.553 7.00028 12 7.44828 12 8.00028V10.5862ZM20 12.0003C19.447 12.0003 19 12.4483 19 13.0003V17.0003C19 18.4393 18.439 19.0003 17 19.0003H7C5.561 19.0003 5 18.4393 5 17.0003V7.00028C5 5.56128 5.561 5.00028 7 5.00028H11C11.553 5.00028 12 4.55228 12 4.00028C12 3.44828 11.553 3.00028 11 3.00028H7C4.458 3.00028 3 4.45828 3 7.00028V17.0003C3 19.5423 4.458 21.0003 7 21.0003H17C19.542 21.0003 21 19.5423 21 17.0003V13.0003C21 12.4483 20.553 12.0003 20 12.0003Z" fill="#4C5980"/>
</svg>
