<svg width="18" height="17" viewBox="0 0 18 17" fill="none" xmlns="http://www.w3.org/2000/svg">
<path d="M3 0.5H4.94995C5.11595 0.5 5.25 0.634049 5.25 0.800049V16.2C5.25 16.366 5.11595 16.5 4.94995 16.5H3C1 16.5 0 15.5 0 13.5V3.5C0 1.5 1 0.5 3 0.5ZM15 0.5H7.05005C6.88405 0.5 6.75 0.634049 6.75 0.800049V7.75H17.7C17.866 7.75 18 7.61595 18 7.44995V3.5C18 1.5 17 0.5 15 0.5ZM6.75 16.2C6.75 16.366 6.88405 16.5 7.05005 16.5H15C17 16.5 18 15.5 18 13.5V9.55005C18 9.38405 17.866 9.25 17.7 9.25H6.75V16.2Z" fill="#D6D9E0"/>
</svg>
