<svg width="55" height="55" viewBox="0 0 55 55" fill="none" xmlns="http://www.w3.org/2000/svg">
<path d="M17.4623 0.165039H37.357C46.7749 0.165039 54.4097 7.79976 54.4097 17.2177V37.1124C54.4097 46.5303 46.7749 54.165 37.357 54.165H17.4623C8.04439 54.165 0.409668 46.5303 0.409668 37.1124V17.2177C0.409668 7.79976 8.04439 0.165039 17.4623 0.165039Z" fill="#7FE3F0"/>
<path d="M32.1597 24.2231V22.165C32.1597 19.545 30.0297 17.415 27.4097 17.415C24.7897 17.415 22.6597 19.545 22.6597 22.165V24.2231C21.1617 24.4561 20.4097 25.434 20.4097 27.165V33.165C20.4097 35.165 21.4097 36.165 23.4097 36.165H31.4097C33.4097 36.165 34.4097 35.165 34.4097 33.165V27.165C34.4097 25.434 33.6577 24.4561 32.1597 24.2231ZM28.1597 30.1521V32.165C28.1597 32.579 27.8237 32.915 27.4097 32.915C26.9957 32.915 26.6597 32.579 26.6597 32.165V30.127C26.3717 29.898 26.1746 29.56 26.1746 29.165C26.1746 28.475 26.7297 27.915 27.4197 27.915H27.4297C28.1197 27.915 28.6797 28.475 28.6797 29.165C28.6797 29.577 28.4667 29.9251 28.1597 30.1521ZM30.6597 24.165H24.1597V22.165C24.1597 20.375 25.6197 18.915 27.4097 18.915C29.1997 18.915 30.6597 20.375 30.6597 22.165V24.165Z" fill="white"/>
</svg>
