<svg width="139" height="45" viewBox="0 0 139 45" fill="none" xmlns="http://www.w3.org/2000/svg">
<path d="M59.088 30.5284C57.1965 30.5284 55.7314 30.0323 54.6926 29.04C53.6693 28.0478 53.1577 26.6369 53.1577 24.8074H55.8322C55.8322 25.8617 56.119 26.6912 56.6926 27.2958C57.2663 27.9005 58.057 28.2028 59.0647 28.2028C59.9485 28.2028 60.6229 28.009 61.088 27.6214C61.5686 27.2183 61.809 26.6524 61.809 25.9237C61.809 25.3036 61.6307 24.8074 61.2741 24.4353C60.933 24.0632 60.3051 23.6911 59.3903 23.319L56.7391 22.2493C54.6616 21.4431 53.6228 20.0012 53.6228 17.9237C53.6228 16.6058 54.1035 15.536 55.0647 14.7143C56.0415 13.8771 57.2973 13.4585 58.8322 13.4585C60.4446 13.4585 61.7392 13.9236 62.7159 14.8539C63.7082 15.7841 64.2043 17.0167 64.2043 18.5516H61.5299C61.5299 17.6523 61.2896 16.9624 60.8089 16.4818C60.3283 15.9857 59.6384 15.7376 58.7392 15.7376C57.9795 15.7376 57.3826 15.9236 56.9484 16.2957C56.5298 16.6523 56.3205 17.1407 56.3205 17.7609C56.3205 18.319 56.5298 18.7996 56.9484 19.2027C57.3671 19.6058 58.057 20.0012 59.0182 20.3888L61.4136 21.3655C63.4601 22.2028 64.4834 23.6989 64.4834 25.854C64.4834 27.2493 63.9873 28.3811 62.995 29.2493C62.0028 30.1021 60.7004 30.5284 59.088 30.5284Z" fill="black"/>
<path d="M72.2918 19.0167C74.9275 19.0167 76.2453 20.4508 76.2453 23.319V30.1331H73.7104V24.4818C73.7104 23.3035 73.5321 22.4586 73.1755 21.9469C72.8189 21.4353 72.2065 21.1795 71.3383 21.1795C70.5166 21.1795 69.8809 21.4431 69.4313 21.9702C68.9817 22.4818 68.7569 23.2183 68.7569 24.1795V30.1331H66.222V13.8538H68.7569V20.8074C69.4546 19.6136 70.6329 19.0167 72.2918 19.0167Z" fill="black"/>
<path d="M87.7665 28.8075C86.7432 29.8772 85.3556 30.4121 83.6037 30.4121C81.8517 30.4121 80.4563 29.8772 79.4176 28.8075C78.3943 27.7222 77.8827 26.3578 77.8827 24.7144C77.8827 23.071 78.3943 21.7144 79.4176 20.6446C80.4563 19.5593 81.8517 19.0167 83.6037 19.0167C85.3556 19.0167 86.7432 19.5593 87.7665 20.6446C88.8053 21.7144 89.3246 23.071 89.3246 24.7144C89.3246 26.3578 88.8053 27.7222 87.7665 28.8075ZM81.2548 27.2028C81.8285 27.8385 82.6114 28.1563 83.6037 28.1563C84.5959 28.1563 85.3711 27.8385 85.9293 27.2028C86.5029 26.5671 86.7897 25.7377 86.7897 24.7144C86.7897 23.6911 86.5029 22.8617 85.9293 22.226C85.3711 21.5904 84.5959 21.2725 83.6037 21.2725C82.6114 21.2725 81.8285 21.5904 81.2548 22.226C80.6967 22.8617 80.4176 23.6911 80.4176 24.7144C80.4176 25.7377 80.6967 26.5671 81.2548 27.2028Z" fill="black"/>
<path d="M91.0578 30.1331V19.2958H93.5927V21.3888C93.7787 20.6601 94.1431 20.1097 94.6857 19.7376C95.2283 19.35 95.8252 19.1562 96.4764 19.1562C96.895 19.1562 97.2284 19.1872 97.4764 19.2492V21.5748C97.2129 21.5438 96.8795 21.5283 96.4764 21.5283C95.5772 21.5283 94.8718 21.8617 94.3601 22.5283C93.8485 23.1795 93.5927 24.1175 93.5927 25.3423V30.1331H91.0578Z" fill="black"/>
<path d="M104.238 27.9935C104.75 27.9935 105.176 27.9625 105.517 27.9005V30.1331C104.99 30.2261 104.362 30.2726 103.633 30.2726C103.215 30.2726 102.85 30.2416 102.54 30.1796C102.23 30.1176 101.866 29.978 101.447 29.761C101.029 29.5284 100.703 29.1331 100.47 28.5749C100.238 28.0168 100.122 27.3113 100.122 26.4586V21.4121H98.2844V19.2958H100.122V16.0167H102.657V19.2958H105.145V21.4121H102.657V25.8772C102.657 26.7454 102.781 27.3191 103.029 27.5982C103.277 27.8617 103.68 27.9935 104.238 27.9935Z" fill="black"/>
<path d="M116.987 19.2958L112.289 24.4818L116.987 30.1331H113.662L109.685 25.2028V30.1331H107.15V13.8538H109.685V24.04L113.778 19.2958H116.987Z" fill="black"/>
<path d="M127.145 24.1563C127.145 24.4353 127.121 24.9005 127.075 25.5516H119.028C119.059 26.4043 119.338 27.0633 119.866 27.5284C120.393 27.978 121.121 28.2028 122.052 28.2028C123.245 28.2028 124.052 27.792 124.47 26.9702H127.028C126.858 27.978 126.308 28.8075 125.377 29.4586C124.463 30.0943 123.354 30.4121 122.052 30.4121C120.346 30.4121 118.997 29.9005 118.005 28.8772C117.013 27.854 116.517 26.4664 116.517 24.7144C116.517 22.978 117.005 21.5981 117.982 20.5748C118.974 19.5361 120.3 19.0167 121.959 19.0167C123.509 19.0167 124.757 19.4973 125.703 20.4586C126.664 21.4043 127.145 22.6369 127.145 24.1563ZM119.028 23.6214H124.656C124.641 22.7842 124.393 22.1407 123.912 21.6911C123.447 21.2415 122.78 21.0167 121.912 21.0167C121.028 21.0167 120.331 21.257 119.819 21.7376C119.307 22.2183 119.044 22.8462 119.028 23.6214Z" fill="black"/>
<path d="M136.269 19.2958H138.804V30.1796C138.804 31.8385 138.331 33.1253 137.385 34.0401C136.471 34.8773 135.246 35.2959 133.711 35.2959C132.114 35.2959 130.874 34.9238 129.99 34.1796C129.215 33.4974 128.812 32.5594 128.781 31.3656H131.339C131.401 31.9858 131.602 32.4432 131.943 32.7377C132.3 33.0478 132.874 33.2029 133.664 33.2029C134.471 33.2029 135.106 32.9393 135.571 32.4122C136.037 31.9005 136.269 31.0943 136.269 29.9935V28.6214C135.571 29.8152 134.409 30.4121 132.781 30.4121C131.494 30.4121 130.502 30.0013 129.804 29.1796C129.122 28.3423 128.781 27.2493 128.781 25.9005V19.2958H131.316V25.3656C131.316 27.2416 132.099 28.1796 133.664 28.1796C134.517 28.1796 135.161 27.8772 135.595 27.2726C136.044 26.6679 136.269 25.8772 136.269 24.9005V19.2958Z" fill="black"/>
<rect x="0.858765" y="0.382324" width="43.7351" height="43.7351" rx="10.2825" fill="url(#paint0_linear_588_1981)"/>
<rect opacity="0.7" x="28.0837" y="10.0842" width="17.5234" height="17.5234" rx="3.98411" transform="rotate(90 28.0837 10.0842)" fill="white"/>
<rect opacity="0.7" x="34.892" y="16.8923" width="17.5234" height="17.5234" rx="3.98411" transform="rotate(90 34.892 16.8923)" fill="white"/>
<defs>
<linearGradient id="paint0_linear_588_1981" x1="22.7263" y1="0.382324" x2="22.7263" y2="44.1174" gradientUnits="userSpaceOnUse">
<stop stop-color="#1F87FE"/>
<stop offset="1" stop-color="#AF8EFF"/>
</linearGradient>
</defs>
</svg>
