<svg width="15" height="26" viewBox="0 0 15 26" fill="none" xmlns="http://www.w3.org/2000/svg">
<path fill-rule="evenodd" clip-rule="evenodd" d="M0.833339 10.8332C1.29358 10.8332 1.66667 11.2063 1.66667 11.6665C1.66667 11.6942 1.66532 11.7216 1.66267 11.7487V14.0432H1.65834V14.0498C1.65834 14.0655 1.65943 14.0811 1.66052 14.0968C1.66151 14.1111 1.66251 14.1255 1.66267 14.1398V14.4532H1.67834C1.92604 17.4169 4.35142 19.7268 7.32367 19.8298H7.66034C10.6335 19.7285 13.0603 17.4178 13.307 14.4532H13.327V11.6765L13.3334 11.6765L13.3333 11.6665C13.3333 11.2063 13.7064 10.8332 14.1667 10.8332C14.6269 10.8332 15 11.2063 15 11.6665C15 11.6905 14.999 11.7142 14.997 11.7377V13.7832H14.987H14.9867C14.9893 17.6114 12.128 20.8365 8.32667 21.2898V23.8232H11.4667V23.8338C11.4777 23.8334 11.4888 23.8332 11.5 23.8332C11.9602 23.8332 12.3333 24.2063 12.3333 24.6665C12.3333 25.1267 11.9602 25.4998 11.5 25.4998C11.4888 25.4998 11.4777 25.4996 11.4667 25.4992V25.4998H3.53001V25.4993C3.52005 25.4997 3.51005 25.4998 3.50001 25.4998C3.03977 25.4998 2.66667 25.1267 2.66667 24.6665C2.66667 24.2063 3.03977 23.8332 3.50001 23.8332C3.51005 23.8332 3.52005 23.8333 3.53001 23.8337V23.8232H6.67667V21.2898C2.86727 20.8471 -0.00463201 17.6182 5.60867e-06 13.7832C5.60867e-06 13.7632 0.00168168 13.7443 0.00331799 13.7258C0.0046904 13.7102 0.00603484 13.695 0.00633894 13.6798V11.7698C0.0021585 11.7359 5.60867e-06 11.7015 5.60867e-06 11.6665C5.60867e-06 11.2063 0.373102 10.8332 0.833339 10.8332ZM11.9933 12.3798C11.9933 12.8832 11.9933 13.4132 11.9667 13.9165C11.9462 14.3704 11.8769 14.8208 11.76 15.2598C11.4991 16.1814 10.9429 16.9918 10.1767 17.5665C8.60513 18.8064 6.38821 18.8064 4.81667 17.5665C4.04849 16.9936 3.49153 16.1825 3.23267 15.2598C3.11523 14.8209 3.04604 14.3705 3.02634 13.9165C2.99734 13.4132 3.00001 12.8832 3.00001 12.3798V8.1665C3.00001 7.6665 3.00267 5.4565 3.00001 5.08317C3.01318 4.62654 3.09176 4.17416 3.23334 3.73984C3.76698 1.82614 5.5103 0.502441 7.49701 0.502441C9.48371 0.502441 11.227 1.82614 11.7607 3.73984C11.886 4.17805 11.9642 4.62837 11.994 5.08317C12.024 5.5865 11.994 7.6665 11.994 8.1665V12.3798H11.9933ZM10.3267 13.1665C10.3267 13.4865 10.32 13.5932 10.3 13.9132C10.2885 14.2038 10.2449 14.4922 10.17 14.7732C10.0104 15.3632 9.66282 15.8851 9.18001 16.2598C8.19073 17.0287 6.80595 17.0287 5.81667 16.2598C5.33198 15.8862 4.98308 15.364 4.82334 14.7732C4.75006 14.4918 4.70648 14.2036 4.69334 13.9132C4.67667 13.5932 4.67334 13.4865 4.67334 13.1665C4.67334 8.73317 4.65334 5.4465 4.68001 5.09317C4.69929 4.80248 4.7473 4.5144 4.82334 4.23317C4.98308 3.64237 5.33198 3.12018 5.81667 2.7465C6.80595 1.97761 8.19073 1.97761 9.18001 2.7465C9.66282 3.12128 10.0104 3.64318 10.17 4.23317C10.2547 4.51311 10.3083 4.80151 10.33 5.09317C10.3533 5.47317 10.3267 8.71984 10.3267 13.1665Z" fill="#1B1B4E"/>
</svg>
