<svg width="16" height="17" viewBox="0 0 16 17" fill="none" xmlns="http://www.w3.org/2000/svg">
<path d="M3 6.5C1.343 6.5 0 5.157 0 3.5C0 1.843 1.343 0.5 3 0.5C4.657 0.5 6 1.843 6 3.5C6 5.157 4.657 6.5 3 6.5ZM16 3.5C16 1.843 14.657 0.5 13 0.5C11.343 0.5 10 1.843 10 3.5C10 5.157 11.343 6.5 13 6.5C14.657 6.5 16 5.157 16 3.5ZM6 13.5C6 11.843 4.657 10.5 3 10.5C1.343 10.5 0 11.843 0 13.5C0 15.157 1.343 16.5 3 16.5C4.657 16.5 6 15.157 6 13.5ZM16 13.5C16 11.843 14.657 10.5 13 10.5C11.343 10.5 10 11.843 10 13.5C10 15.157 11.343 16.5 13 16.5C14.657 16.5 16 15.157 16 13.5Z" fill="#4C5980"/>
</svg>
