<svg width="16" height="19" viewBox="0 0 16 19" fill="none" xmlns="http://www.w3.org/2000/svg">
<path d="M13 0.5H3C1 0.5 0 1.5 0 3.5V15.5C0 17.5 1 18.5 3 18.5H13C15 18.5 16 17.5 16 15.5V3.5C16 1.5 15 0.5 13 0.5ZM4 14.25C3.586 14.25 3.25 13.914 3.25 13.5C3.25 13.086 3.586 12.75 4 12.75C4.414 12.75 4.75 13.086 4.75 13.5C4.75 13.914 4.414 14.25 4 14.25ZM4 10.25C3.586 10.25 3.25 9.914 3.25 9.5C3.25 9.086 3.586 8.75 4 8.75C4.414 8.75 4.75 9.086 4.75 9.5C4.75 9.914 4.414 10.25 4 10.25ZM4 6.25C3.586 6.25 3.25 5.914 3.25 5.5C3.25 5.086 3.586 4.75 4 4.75C4.414 4.75 4.75 5.086 4.75 5.5C4.75 5.914 4.414 6.25 4 6.25ZM12 14.25H7C6.586 14.25 6.25 13.914 6.25 13.5C6.25 13.086 6.586 12.75 7 12.75H12C12.414 12.75 12.75 13.086 12.75 13.5C12.75 13.914 12.414 14.25 12 14.25ZM12 10.25H7C6.586 10.25 6.25 9.914 6.25 9.5C6.25 9.086 6.586 8.75 7 8.75H12C12.414 8.75 12.75 9.086 12.75 9.5C12.75 9.914 12.414 10.25 12 10.25ZM12 6.25H7C6.586 6.25 6.25 5.914 6.25 5.5C6.25 5.086 6.586 4.75 7 4.75H12C12.414 4.75 12.75 5.086 12.75 5.5C12.75 5.914 12.414 6.25 12 6.25Z" fill="#D6D9E0"/>
</svg>
