<svg width="55" height="55" viewBox="0 0 55 55" fill="none" xmlns="http://www.w3.org/2000/svg">
<path d="M17.4623 0.165039H37.357C46.7749 0.165039 54.4097 7.79976 54.4097 17.2177V37.1124C54.4097 46.5303 46.7749 54.165 37.357 54.165H17.4623C8.04439 54.165 0.409668 46.5303 0.409668 37.1124V17.2177C0.409668 7.79976 8.04439 0.165039 17.4623 0.165039Z" fill="#59B9FD"/>
<path d="M26.8693 17.7081C27.0483 17.197 27.7711 17.197 27.9501 17.7081L30.1142 23.8881C30.193 24.1132 30.4031 24.2658 30.6416 24.2712L37.1878 24.4197C37.7292 24.432 37.9526 25.1194 37.5218 25.4476L32.313 29.4154C32.1233 29.56 32.043 29.807 32.1116 30.0354L33.9933 36.3071C34.1489 36.8258 33.5642 37.2507 33.119 36.9424L27.7357 33.2147C27.5396 33.0789 27.2799 33.0789 27.0838 33.2147L21.7005 36.9424C21.2553 37.2507 20.6705 36.8258 20.8261 36.3071L22.7079 30.0354C22.7764 29.807 22.6962 29.56 22.5064 29.4154L17.2977 25.4476C16.8669 25.1194 17.0902 24.432 17.6316 24.4197L24.1779 24.2712C24.4163 24.2658 24.6264 24.1132 24.7053 23.8881L26.8693 17.7081Z" fill="white"/>
</svg>
