<svg width="54" height="55" viewBox="0 0 54 55" fill="none" xmlns="http://www.w3.org/2000/svg">
<path d="M17.0526 0.5H36.9474C46.3653 0.5 54 8.13472 54 17.5526V37.4474C54 46.8653 46.3653 54.5 36.9474 54.5H17.0526C7.63472 54.5 0 46.8653 0 37.4474V17.5526C0 8.13472 7.63472 0.5 17.0526 0.5Z" fill="#8FACFF"/>
<path d="M30.326 21.9211L31.697 24.6861C31.8 24.8941 31.999 25.0381 32.23 25.0721L35.394 25.5301C35.974 25.6141 36.206 26.3261 35.785 26.7341L33.4969 28.9541C33.3299 29.1161 33.253 29.3501 33.293 29.5791L33.816 32.6171C33.922 33.2331 33.274 33.7031 32.719 33.4131L29.974 31.9771C29.768 31.8691 29.522 31.8691 29.317 31.9771L26.574 33.4121C26.018 33.7031 25.369 33.2321 25.476 32.6151L25.999 29.5801C26.039 29.3511 25.962 29.1171 25.795 28.9551L23.507 26.7351C23.087 26.3271 23.3179 25.6151 23.8979 25.5311L27.062 25.0731C27.292 25.0401 27.491 24.8961 27.595 24.6871L28.9659 21.9221C29.2459 21.3601 30.048 21.3601 30.326 21.9211ZM22.75 32.5001C22.75 32.0861 22.414 31.7501 22 31.7501H18C17.586 31.7501 17.25 32.0861 17.25 32.5001C17.25 32.9141 17.586 33.2501 18 33.2501H22C22.414 33.2501 22.75 32.9141 22.75 32.5001ZM20 28.2501H18C17.586 28.2501 17.25 27.9141 17.25 27.5001C17.25 27.0861 17.586 26.7501 18 26.7501H20C20.414 26.7501 20.75 27.0861 20.75 27.5001C20.75 27.9141 20.414 28.2501 20 28.2501ZM22 23.2501H18C17.586 23.2501 17.25 22.9141 17.25 22.5001C17.25 22.0861 17.586 21.7501 18 21.7501H22C22.414 21.7501 22.75 22.0861 22.75 22.5001C22.75 22.9141 22.414 23.2501 22 23.2501Z" fill="white"/>
</svg>
