<svg width="54" height="55" viewBox="0 0 54 55" fill="none" xmlns="http://www.w3.org/2000/svg">
<path d="M17.0526 0.5H36.9474C46.3653 0.5 54 8.13472 54 17.5526V37.4474C54 46.8653 46.3653 54.5 36.9474 54.5H17.0526C7.63472 54.5 0 46.8653 0 37.4474V17.5526C0 8.13472 7.63472 0.5 17.0526 0.5Z" fill="#FF9B90"/>
<path d="M37 19.5V24.5C37 25.052 36.553 25.5 36 25.5H31C30.447 25.5 30 25.052 30 24.5C30 23.948 30.447 23.5 31 23.5H33.9099C32.5029 21.065 29.887 19.5 27 19.5C22.911 19.5 19.495 22.5559 19.054 26.6079C18.998 27.1199 18.565 27.5 18.061 27.5C18.025 27.5 17.9889 27.4979 17.9519 27.4939C17.4029 27.4339 17.0069 26.9411 17.0659 26.3911C17.6189 21.3221 21.889 17.499 27.001 17.499C30.204 17.499 33.148 19.0341 35.001 21.5071V19.5C35.001 18.948 35.448 18.5 36.001 18.5C36.554 18.5 37 18.948 37 19.5ZM36.0491 27.5061C35.4881 27.4471 35.006 27.8431 34.946 28.3921C34.505 32.4451 31.089 35.5 27 35.5C24.113 35.5 21.4971 33.935 20.0901 31.5H23C23.553 31.5 24 31.052 24 30.5C24 29.948 23.553 29.5 23 29.5H18C17.447 29.5 17 29.948 17 30.5V35.5C17 36.052 17.447 36.5 18 36.5C18.553 36.5 19 36.052 19 35.5V33.4919C20.853 35.9649 23.797 37.5 27 37.5C32.111 37.5 36.3821 33.6769 36.9351 28.6079C36.9941 28.0589 36.5981 27.5661 36.0491 27.5061Z" fill="white"/>
</svg>
