<svg width="54" height="55" viewBox="0 0 54 55" fill="none" xmlns="http://www.w3.org/2000/svg">
<path d="M17.0526 0.5H36.9474C46.3653 0.5 54 8.13472 54 17.5526V37.4474C54 46.8653 46.3653 54.5 36.9474 54.5H17.0526C7.63472 54.5 0 46.8653 0 37.4474V17.5526C0 8.13472 7.63472 0.5 17.0526 0.5Z" fill="#1F87FE"/>
<path d="M34.25 23.75H32C30.42 23.75 29.75 23.08 29.75 21.5V19.25L34.25 23.75ZM35 25.25V33.5C35 35.5 34 36.5 32 36.5H23C21 36.5 20 35.5 20 33.5V21.5C20 19.5 21 18.5 23 18.5H28.25V21.5C28.25 23.92 29.58 25.25 32 25.25H35ZM24.75 31.5C24.75 31.086 24.414 30.75 24 30.75C23.586 30.75 23.25 31.086 23.25 31.5C23.25 31.914 23.586 32.25 24 32.25C24.414 32.25 24.75 31.914 24.75 31.5ZM24.75 27.5C24.75 27.086 24.414 26.75 24 26.75C23.586 26.75 23.25 27.086 23.25 27.5C23.25 27.914 23.586 28.25 24 28.25C24.414 28.25 24.75 27.914 24.75 27.5ZM31.75 31.5C31.75 31.086 31.414 30.75 31 30.75H26.5C26.086 30.75 25.75 31.086 25.75 31.5C25.75 31.914 26.086 32.25 26.5 32.25H31C31.414 32.25 31.75 31.914 31.75 31.5ZM31.75 27.5C31.75 27.086 31.414 26.75 31 26.75H26.5C26.086 26.75 25.75 27.086 25.75 27.5C25.75 27.914 26.086 28.25 26.5 28.25H31C31.414 28.25 31.75 27.914 31.75 27.5Z" fill="white"/>
</svg>
