<svg width="18" height="19" viewBox="0 0 18 19" fill="none" xmlns="http://www.w3.org/2000/svg">
<path d="M17.58 4.05996L15.4 6.23996C14.82 6.80996 13.87 6.80998 13.29 6.22998L12.27 5.20996C11.69 4.62996 11.69 3.67995 12.27 3.10995L14.44 0.919981C12.91 0.309981 11.01 0.289953 9.23 1.35995C8.51 1.78995 7.9 2.36997 7.47 3.06997C7.44 3.10997 7.41 3.14998 7.39 3.19998C6.61 4.48998 6.4 5.83996 6.58 7.05996C6.65 7.51996 6.49 7.97995 6.16 8.29995L0.839996 13.63C0.279996 14.18 0 14.92 0 15.64C0 16.38 0.279996 17.1 0.839996 17.66C1.95 18.78 3.75999 18.78 4.87 17.66L10.2 12.34C10.52 12.01 10.98 11.85 11.44 11.92C12.66 12.1 14.01 11.89 15.29 11.12C16.05 10.67 16.69 10.03 17.13 9.27997C18.21 7.49997 18.19 5.58996 17.58 4.05996ZM3.02 16.5C2.47 16.5 2.02 16.05 2.02 15.5C2.02 14.95 2.45999 14.5 3.00999 14.5H3.02C3.57 14.5 4.02 14.95 4.02 15.5C4.02 16.05 3.57 16.5 3.02 16.5Z" fill="#D6D9E0"/>
</svg>
